<?xml version="1.0" encoding="UTF-8"?> <svg xmlns="http://www.w3.org/2000/svg" width="961" height="873" viewBox="0 0 961 873" fill="none"> <g opacity="0.7"> <path d="M-1.98437 461.046C53.0387 467.293 170.504 452.866 200.181 345.181C237.277 210.574 201.867 66.9719 346.57 -47.6416C501.413 -170.287 769.742 -137.677 801.144 -358.916" stroke="url(#paint0_linear)"></path> <path d="M-0.598625 468.224C54.4245 474.471 171.89 460.044 201.567 352.359C238.663 217.753 203.253 74.1501 347.956 -40.4634C502.798 -163.108 771.128 -130.498 802.53 -351.738" stroke="url(#paint1_linear)"></path> <path d="M-0.148918 475.311C54.8742 481.559 172.34 467.132 202.017 359.447C239.113 224.84 203.703 81.2375 348.405 -33.376C503.248 -156.021 771.577 -123.411 802.98 -344.65" stroke="url(#paint2_linear)"></path> <path d="M-0.318351 482.269C54.7047 488.517 172.17 474.09 201.847 366.405C238.943 231.798 203.533 88.1955 348.236 -26.418C503.079 -149.063 771.408 -116.453 802.81 -337.692" stroke="url(#paint3_linear)"></path> <path d="M-0.964347 489.096C54.0587 495.343 171.524 480.916 201.201 373.231C238.297 238.625 202.887 95.0222 347.59 -19.5913C502.433 -142.236 770.762 -109.626 802.164 -330.866" stroke="url(#paint4_linear)"></path> <path d="M-2.0039 495.793C53.0192 502.04 170.485 487.613 200.162 379.928C237.258 245.322 201.848 101.719 346.55 -12.8946C501.393 -135.54 769.722 -102.93 801.125 -324.169" stroke="url(#paint5_linear)"></path> <path d="M-3.38329 502.362C51.6398 508.609 169.105 494.183 198.782 386.497C235.878 251.891 200.468 108.288 345.171 -6.32523C500.014 -128.97 768.343 -96.3603 799.745 -317.6" stroke="url(#paint6_linear)"></path> <path d="M-5.06298 508.807C49.9601 515.054 167.426 500.627 197.102 392.942C234.199 258.336 198.789 114.733 343.491 0.119597C498.334 -122.525 766.663 -89.9155 798.065 -311.155" stroke="url(#paint7_linear)"></path> <path d="M-7.0122 515.13C48.0109 521.377 165.476 506.95 195.153 399.265C232.249 264.658 196.839 121.056 341.542 6.44235C496.385 -116.203 764.714 -83.5927 796.116 -304.832" stroke="url(#paint8_linear)"></path> <path d="M-9.20653 521.333C45.8166 527.581 163.282 513.154 192.959 405.469C230.055 270.862 194.645 127.26 339.348 12.646C494.19 -109.999 762.52 -77.3891 793.922 -298.628" stroke="url(#paint9_linear)"></path> <path d="M-11.626 527.42C43.3971 533.667 160.863 519.24 190.54 411.555C227.636 276.948 192.226 133.346 336.928 18.7324C491.771 -103.913 760.1 -71.3027 791.502 -292.542" stroke="url(#paint10_linear)"></path> <path d="M-14.2529 533.392C40.7702 539.64 158.236 525.213 187.913 417.528C225.009 282.921 189.599 139.319 334.301 24.705C489.144 -97.94 757.473 -65.33 788.876 -286.569" stroke="url(#paint11_linear)"></path> <path d="M-17.0727 539.253C37.9503 545.501 155.416 531.074 185.093 423.388C222.189 288.782 186.779 145.179 331.482 30.5659C486.324 -92.0791 754.653 -59.4692 786.056 -280.709" stroke="url(#paint12_linear)"></path> <path d="M-20.0723 545.005C34.9508 551.252 152.416 536.825 182.093 429.14C219.189 294.533 183.779 150.931 328.482 36.3174C483.325 -86.3277 751.654 -53.7177 783.056 -274.957" stroke="url(#paint13_linear)"></path> <path d="M-23.2407 550.65C31.7824 556.897 149.248 542.47 178.925 434.785C216.021 300.178 180.611 156.576 325.314 41.9624C480.156 -80.6826 748.486 -48.0727 779.888 -269.312" stroke="url(#paint14_linear)"></path> <path d="M-26.5664 556.19C28.4567 562.438 145.922 548.011 175.599 440.325C212.695 305.719 177.285 162.116 321.988 47.5029C476.831 -75.1421 745.16 -42.5322 776.562 -263.771" stroke="url(#paint15_linear)"></path> <path d="M-30.0405 561.629C24.9826 567.877 142.448 553.45 172.125 445.764C209.221 311.158 173.811 167.555 318.514 52.9419C473.357 -69.7032 741.686 -37.0932 773.088 -258.333" stroke="url(#paint16_linear)"></path> <path d="M-33.6553 566.969C21.3678 573.216 138.833 558.789 168.51 451.104C205.606 316.497 170.196 172.895 314.899 58.2812C469.742 -64.3638 738.071 -31.7538 769.473 -252.993" stroke="url(#paint17_linear)"></path> <path d="M-37.4018 572.211C17.6212 578.458 135.087 564.031 164.764 456.346C201.86 321.739 166.45 178.137 311.152 63.5234C465.995 -59.1216 734.324 -26.5117 765.727 -247.751" stroke="url(#paint18_linear)"></path> <path d="M-41.2734 577.358C13.7497 583.606 131.215 569.179 160.892 461.493C197.988 326.887 162.578 183.284 307.281 68.6709C462.124 -53.9742 730.453 -21.3642 761.855 -242.604" stroke="url(#paint19_linear)"></path> <path d="M-45.2642 582.413C9.75894 588.66 127.224 574.233 156.901 466.548C193.998 331.942 158.587 188.339 303.29 73.7256C458.133 -48.9195 726.462 -16.3095 757.864 -237.549" stroke="url(#paint20_linear)"></path> <path d="M-49.3672 587.377C5.65591 593.625 123.121 579.198 152.798 471.512C189.894 336.906 154.484 193.303 299.187 78.6899C454.03 -43.9551 722.359 -11.3452 753.761 -232.584" stroke="url(#paint21_linear)"></path> <path d="M-53.3916 592.082C1.6315 598.33 119.097 583.903 148.774 476.218C185.87 341.611 150.46 198.009 295.163 83.395C450.005 -39.25 718.335 -6.64007 749.737 -227.879" stroke="url(#paint22_linear)"></path> <path d="M-57.3628 597.15C-2.33969 603.397 115.126 588.97 144.803 481.285C181.899 346.678 146.489 203.076 291.192 88.4624C446.034 -34.1826 714.363 -1.57269 745.766 -222.812" stroke="url(#paint23_linear)"></path> <path d="M-61.0088 602.464C-5.98569 608.711 111.48 594.285 141.157 486.599C178.253 351.993 142.843 208.39 287.546 93.7768C442.388 -28.8682 710.717 3.74176 742.12 -217.498" stroke="url(#paint24_linear)"></path> <path d="M-64.3125 608.018C-9.2894 614.265 108.176 599.839 137.853 492.153C174.949 357.547 139.539 213.944 284.242 99.3308C439.085 -23.3142 707.414 9.29572 738.816 -211.944" stroke="url(#paint25_linear)"></path> <path d="M-67.2578 613.802C-12.2347 620.049 105.231 605.622 134.908 497.937C172.004 363.33 136.594 219.728 281.297 105.114C436.139 -17.5308 704.468 15.0792 735.871 -206.16" stroke="url(#paint26_linear)"></path> <path d="M-69.834 619.802C-14.8109 626.049 102.655 611.622 132.331 503.937C169.428 369.331 134.018 225.728 278.72 111.114C433.563 -11.5305 701.892 21.0794 733.294 -200.16" stroke="url(#paint27_linear)"></path> <path d="M-72.0298 626.004C-17.0067 632.251 100.459 617.824 130.136 510.139C167.232 375.532 131.822 231.93 276.525 117.316C431.367 -5.32889 699.696 27.2811 731.099 -193.958" stroke="url(#paint28_linear)"></path> <path d="M-73.8413 632.389C-18.8182 638.636 98.6472 624.209 128.324 516.524C165.42 381.917 130.01 238.315 274.713 123.701C429.556 1.05636 697.885 33.6663 729.287 -187.573" stroke="url(#paint29_linear)"></path> <path d="M-75.2656 638.94C-20.2425 645.187 97.2229 630.76 126.9 523.075C163.996 388.468 128.586 244.866 273.289 130.252C428.131 7.60739 696.461 40.2173 727.863 -181.022" stroke="url(#paint30_linear)"></path> <path d="M-76.3052 645.636C-21.2821 651.884 96.1833 637.457 125.86 529.772C162.957 395.165 127.546 251.562 272.249 136.949C427.092 14.3039 695.421 46.9139 726.823 -174.325" stroke="url(#paint31_linear)"></path> <path d="M-76.9629 652.459C-21.9398 658.706 95.5256 644.279 125.203 536.594C162.299 401.987 126.889 258.385 271.591 143.771C426.434 21.1262 694.763 53.7361 726.166 -167.503" stroke="url(#paint32_linear)"></path> <path d="M-77.248 659.387C-22.2249 665.634 95.2405 651.207 124.917 543.522C162.014 408.915 126.604 265.313 271.306 150.699C426.149 28.0542 694.478 60.6641 725.88 -160.575" stroke="url(#paint33_linear)"></path> <path d="M-77.1694 666.402C-22.1463 672.649 95.3191 658.222 124.996 550.537C162.092 415.931 126.682 272.328 271.385 157.715C426.228 35.0695 694.557 67.6795 725.959 -153.56" stroke="url(#paint34_linear)"></path> <path d="M-76.7388 673.486C-21.7157 679.733 95.7498 665.306 125.427 557.621C162.523 423.015 127.113 279.412 271.816 164.799C426.658 42.1535 694.987 74.7635 726.39 -146.476" stroke="url(#paint35_linear)"></path> <path d="M-75.9683 680.623C-20.9452 686.87 96.5203 672.443 126.197 564.758C163.293 430.151 127.883 286.549 272.586 171.935C427.429 49.2903 695.758 81.9002 727.16 -139.339" stroke="url(#paint36_linear)"></path> <path d="M-74.8716 687.796C-19.8485 694.043 97.6169 679.616 127.294 571.931C164.39 437.324 128.98 293.722 273.683 179.108C428.525 56.4633 696.855 89.0733 728.257 -132.166" stroke="url(#paint37_linear)"></path> <path d="M-73.4629 694.992C-18.4398 701.24 99.0256 686.813 128.703 579.127C165.799 444.521 130.389 300.918 275.091 186.305C429.934 63.6599 698.263 96.2698 729.666 -124.969" stroke="url(#paint38_linear)"></path> <path d="M-71.7544 702.198C-16.7313 708.446 100.734 694.019 130.411 586.334C167.507 451.727 132.097 308.125 276.8 193.511C431.643 70.8659 699.972 103.476 731.374 -117.763" stroke="url(#paint39_linear)"></path> <path d="M-69.7588 709.404C-14.7357 715.651 102.73 701.224 132.407 593.539C169.503 458.932 134.093 315.33 278.796 200.716C433.638 78.0713 701.967 110.681 733.37 -110.558" stroke="url(#paint40_linear)"></path> <path d="M-67.4883 716.597C-12.4652 722.845 105 708.418 134.677 600.732C171.773 466.126 136.363 322.523 281.066 207.91C435.909 85.2649 704.238 117.875 735.64 -103.365" stroke="url(#paint41_linear)"></path> <path d="M-64.9536 723.769C-9.93051 730.016 107.535 715.589 137.212 607.904C174.308 473.298 138.898 329.695 283.601 215.082C438.443 92.4365 706.773 125.046 738.175 -96.1929" stroke="url(#paint42_linear)"></path> <path d="M-62.1631 730.911C-7.13998 737.158 110.325 722.731 140.002 615.046C177.099 480.439 141.689 336.837 286.391 222.223C441.234 99.5781 709.563 132.188 740.965 -89.0513" stroke="url(#paint43_linear)"></path> <path d="M-59.1255 738.013C-4.10239 744.26 113.363 729.833 143.04 622.148C180.136 487.542 144.726 343.939 289.429 229.326C444.272 106.681 712.601 139.291 744.003 -81.9487" stroke="url(#paint44_linear)"></path> <path d="M-55.8447 745.067C-0.821625 751.314 116.644 736.888 146.321 629.202C183.417 494.596 148.007 350.993 292.71 236.38C447.552 113.735 715.882 146.345 747.284 -74.8945" stroke="url(#paint45_linear)"></path> <path d="M-52.3242 752.064C2.69888 758.311 120.164 743.884 149.841 636.199C186.937 501.593 151.527 357.99 296.23 243.377C451.073 120.732 719.402 153.342 750.804 -67.8977" stroke="url(#paint46_linear)"></path> <path d="M-48.5664 758.986C6.4567 765.234 123.922 750.807 153.599 643.122C190.695 508.515 155.285 364.913 299.988 250.299C454.831 127.654 723.16 160.264 754.562 -60.9754" stroke="url(#paint47_linear)"></path> <path d="M-44.5703 765.813C10.4528 772.06 127.918 757.633 157.595 649.948C194.691 515.342 159.281 371.739 303.984 257.125C458.827 134.48 727.156 167.09 758.558 -54.1489" stroke="url(#paint48_linear)"></path> <path d="M-40.1767 772.749C14.8463 778.996 132.312 764.569 161.989 656.884C199.085 522.278 163.675 378.675 308.378 264.062C463.22 141.417 731.549 174.027 762.952 -47.2127" stroke="url(#paint49_linear)"></path> <path d="M-35.4961 779.518C19.527 785.765 136.992 771.338 166.669 663.653C203.766 529.047 168.355 385.444 313.058 270.831C467.901 148.186 736.23 180.795 767.632 -40.4439" stroke="url(#paint50_linear)"></path> </g> <defs> <linearGradient id="paint0_linear" x1="312.19" y1="-18.6161" x2="469.511" y2="106.825" gradientUnits="userSpaceOnUse"> <stop stop-color="#67DE69"></stop> <stop offset="1" stop-color="#0047B0"></stop> </linearGradient> <linearGradient id="paint1_linear" x1="313.576" y1="-11.4379" x2="470.897" y2="114.003" gradientUnits="userSpaceOnUse"> <stop stop-color="#67DE69"></stop> <stop offset="1" stop-color="#0047B0"></stop> </linearGradient> <linearGradient id="paint2_linear" x1="314.025" y1="-4.35048" x2="471.346" y2="121.09" gradientUnits="userSpaceOnUse"> <stop stop-color="#67DE69"></stop> <stop offset="1" stop-color="#0047B0"></stop> </linearGradient> <linearGradient id="paint3_linear" x1="313.856" y1="2.60753" x2="471.177" y2="128.048" gradientUnits="userSpaceOnUse"> <stop stop-color="#67DE69"></stop> <stop offset="1" stop-color="#0047B0"></stop> </linearGradient> <linearGradient id="paint4_linear" x1="313.21" y1="9.43419" x2="470.531" y2="134.875" gradientUnits="userSpaceOnUse"> <stop stop-color="#67DE69"></stop> <stop offset="1" stop-color="#0047B0"></stop> </linearGradient> <linearGradient id="paint5_linear" x1="312.17" y1="16.131" x2="469.491" y2="141.572" gradientUnits="userSpaceOnUse"> <stop stop-color="#67DE69"></stop> <stop offset="1" stop-color="#0047B0"></stop> </linearGradient> <linearGradient id="paint6_linear" x1="310.791" y1="22.7003" x2="468.112" y2="148.141" gradientUnits="userSpaceOnUse"> <stop stop-color="#67DE69"></stop> <stop offset="1" stop-color="#0047B0"></stop> </linearGradient> <linearGradient id="paint7_linear" x1="309.111" y1="29.1451" x2="466.432" y2="154.586" gradientUnits="userSpaceOnUse"> <stop stop-color="#67DE69"></stop> <stop offset="1" stop-color="#0047B0"></stop> </linearGradient> <linearGradient id="paint8_linear" x1="307.162" y1="35.4679" x2="464.483" y2="160.909" gradientUnits="userSpaceOnUse"> <stop stop-color="#67DE69"></stop> <stop offset="1" stop-color="#0047B0"></stop> </linearGradient> <linearGradient id="paint9_linear" x1="304.968" y1="41.6715" x2="462.289" y2="167.112" gradientUnits="userSpaceOnUse"> <stop stop-color="#67DE69"></stop> <stop offset="1" stop-color="#0047B0"></stop> </linearGradient> <linearGradient id="paint10_linear" x1="302.548" y1="47.7579" x2="459.869" y2="173.199" gradientUnits="userSpaceOnUse"> <stop stop-color="#67DE69"></stop> <stop offset="1" stop-color="#0047B0"></stop> </linearGradient> <linearGradient id="paint11_linear" x1="299.921" y1="53.7306" x2="457.242" y2="179.171" gradientUnits="userSpaceOnUse"> <stop stop-color="#67DE69"></stop> <stop offset="1" stop-color="#0047B0"></stop> </linearGradient> <linearGradient id="paint12_linear" x1="297.102" y1="59.5914" x2="454.422" y2="185.032" gradientUnits="userSpaceOnUse"> <stop stop-color="#67DE69"></stop> <stop offset="1" stop-color="#0047B0"></stop> </linearGradient> <linearGradient id="paint13_linear" x1="294.102" y1="65.3429" x2="451.423" y2="190.784" gradientUnits="userSpaceOnUse"> <stop stop-color="#67DE69"></stop> <stop offset="1" stop-color="#0047B0"></stop> </linearGradient> <linearGradient id="paint14_linear" x1="290.934" y1="70.9879" x2="448.255" y2="196.429" gradientUnits="userSpaceOnUse"> <stop stop-color="#67DE69"></stop> <stop offset="1" stop-color="#0047B0"></stop> </linearGradient> <linearGradient id="paint15_linear" x1="287.608" y1="76.5284" x2="444.929" y2="201.969" gradientUnits="userSpaceOnUse"> <stop stop-color="#67DE69"></stop> <stop offset="1" stop-color="#0047B0"></stop> </linearGradient> <linearGradient id="paint16_linear" x1="284.134" y1="81.9674" x2="441.455" y2="207.408" gradientUnits="userSpaceOnUse"> <stop stop-color="#67DE69"></stop> <stop offset="1" stop-color="#0047B0"></stop> </linearGradient> <linearGradient id="paint17_linear" x1="280.519" y1="87.3067" x2="437.84" y2="212.748" gradientUnits="userSpaceOnUse"> <stop stop-color="#67DE69"></stop> <stop offset="1" stop-color="#0047B0"></stop> </linearGradient> <linearGradient id="paint18_linear" x1="276.772" y1="92.5489" x2="434.093" y2="217.99" gradientUnits="userSpaceOnUse"> <stop stop-color="#67DE69"></stop> <stop offset="1" stop-color="#0047B0"></stop> </linearGradient> <linearGradient id="paint19_linear" x1="272.901" y1="97.6964" x2="430.222" y2="223.137" gradientUnits="userSpaceOnUse"> <stop stop-color="#67DE69"></stop> <stop offset="1" stop-color="#0047B0"></stop> </linearGradient> <linearGradient id="paint20_linear" x1="268.91" y1="102.751" x2="426.231" y2="228.192" gradientUnits="userSpaceOnUse"> <stop stop-color="#67DE69"></stop> <stop offset="1" stop-color="#0047B0"></stop> </linearGradient> <linearGradient id="paint21_linear" x1="264.807" y1="107.715" x2="422.128" y2="233.156" gradientUnits="userSpaceOnUse"> <stop stop-color="#67DE69"></stop> <stop offset="1" stop-color="#0047B0"></stop> </linearGradient> <linearGradient id="paint22_linear" x1="260.783" y1="112.421" x2="418.104" y2="237.861" gradientUnits="userSpaceOnUse"> <stop stop-color="#67DE69"></stop> <stop offset="1" stop-color="#0047B0"></stop> </linearGradient> <linearGradient id="paint23_linear" x1="256.811" y1="117.488" x2="414.132" y2="242.929" gradientUnits="userSpaceOnUse"> <stop stop-color="#67DE69"></stop> <stop offset="1" stop-color="#0047B0"></stop> </linearGradient> <linearGradient id="paint24_linear" x1="253.165" y1="122.802" x2="410.486" y2="248.243" gradientUnits="userSpaceOnUse"> <stop stop-color="#67DE69"></stop> <stop offset="1" stop-color="#0047B0"></stop> </linearGradient> <linearGradient id="paint25_linear" x1="249.862" y1="128.356" x2="407.183" y2="253.797" gradientUnits="userSpaceOnUse"> <stop stop-color="#67DE69"></stop> <stop offset="1" stop-color="#0047B0"></stop> </linearGradient> <linearGradient id="paint26_linear" x1="246.916" y1="134.14" x2="404.237" y2="259.581" gradientUnits="userSpaceOnUse"> <stop stop-color="#67DE69"></stop> <stop offset="1" stop-color="#0047B0"></stop> </linearGradient> <linearGradient id="paint27_linear" x1="244.34" y1="140.14" x2="401.661" y2="265.581" gradientUnits="userSpaceOnUse"> <stop stop-color="#67DE69"></stop> <stop offset="1" stop-color="#0047B0"></stop> </linearGradient> <linearGradient id="paint28_linear" x1="242.144" y1="146.342" x2="399.465" y2="271.783" gradientUnits="userSpaceOnUse"> <stop stop-color="#67DE69"></stop> <stop offset="1" stop-color="#0047B0"></stop> </linearGradient> <linearGradient id="paint29_linear" x1="240.333" y1="152.727" x2="397.654" y2="278.168" gradientUnits="userSpaceOnUse"> <stop stop-color="#67DE69"></stop> <stop offset="1" stop-color="#0047B0"></stop> </linearGradient> <linearGradient id="paint30_linear" x1="238.909" y1="159.278" x2="396.23" y2="284.719" gradientUnits="userSpaceOnUse"> <stop stop-color="#67DE69"></stop> <stop offset="1" stop-color="#0047B0"></stop> </linearGradient> <linearGradient id="paint31_linear" x1="237.869" y1="165.974" x2="395.19" y2="291.415" gradientUnits="userSpaceOnUse"> <stop stop-color="#67DE69"></stop> <stop offset="1" stop-color="#0047B0"></stop> </linearGradient> <linearGradient id="paint32_linear" x1="237.211" y1="172.797" x2="394.532" y2="298.238" gradientUnits="userSpaceOnUse"> <stop stop-color="#67DE69"></stop> <stop offset="1" stop-color="#0047B0"></stop> </linearGradient> <linearGradient id="paint33_linear" x1="236.926" y1="179.725" x2="394.247" y2="305.166" gradientUnits="userSpaceOnUse"> <stop stop-color="#67DE69"></stop> <stop offset="1" stop-color="#0047B0"></stop> </linearGradient> <linearGradient id="paint34_linear" x1="237.005" y1="186.74" x2="394.326" y2="312.181" gradientUnits="userSpaceOnUse"> <stop stop-color="#67DE69"></stop> <stop offset="1" stop-color="#0047B0"></stop> </linearGradient> <linearGradient id="paint35_linear" x1="237.435" y1="193.824" x2="394.756" y2="319.265" gradientUnits="userSpaceOnUse"> <stop stop-color="#67DE69"></stop> <stop offset="1" stop-color="#0047B0"></stop> </linearGradient> <linearGradient id="paint36_linear" x1="238.206" y1="200.961" x2="395.527" y2="326.402" gradientUnits="userSpaceOnUse"> <stop stop-color="#67DE69"></stop> <stop offset="1" stop-color="#0047B0"></stop> </linearGradient> <linearGradient id="paint37_linear" x1="239.303" y1="208.134" x2="396.624" y2="333.575" gradientUnits="userSpaceOnUse"> <stop stop-color="#67DE69"></stop> <stop offset="1" stop-color="#0047B0"></stop> </linearGradient> <linearGradient id="paint38_linear" x1="240.711" y1="215.33" x2="398.032" y2="340.771" gradientUnits="userSpaceOnUse"> <stop stop-color="#67DE69"></stop> <stop offset="1" stop-color="#0047B0"></stop> </linearGradient> <linearGradient id="paint39_linear" x1="242.42" y1="222.536" x2="399.741" y2="347.977" gradientUnits="userSpaceOnUse"> <stop stop-color="#67DE69"></stop> <stop offset="1" stop-color="#0047B0"></stop> </linearGradient> <linearGradient id="paint40_linear" x1="244.415" y1="229.742" x2="401.736" y2="355.183" gradientUnits="userSpaceOnUse"> <stop stop-color="#67DE69"></stop> <stop offset="1" stop-color="#0047B0"></stop> </linearGradient> <linearGradient id="paint41_linear" x1="246.686" y1="236.935" x2="404.007" y2="362.376" gradientUnits="userSpaceOnUse"> <stop stop-color="#67DE69"></stop> <stop offset="1" stop-color="#0047B0"></stop> </linearGradient> <linearGradient id="paint42_linear" x1="249.221" y1="244.107" x2="406.542" y2="369.548" gradientUnits="userSpaceOnUse"> <stop stop-color="#67DE69"></stop> <stop offset="1" stop-color="#0047B0"></stop> </linearGradient> <linearGradient id="paint43_linear" x1="252.011" y1="251.249" x2="409.332" y2="376.69" gradientUnits="userSpaceOnUse"> <stop stop-color="#67DE69"></stop> <stop offset="1" stop-color="#0047B0"></stop> </linearGradient> <linearGradient id="paint44_linear" x1="255.049" y1="258.351" x2="412.37" y2="383.792" gradientUnits="userSpaceOnUse"> <stop stop-color="#67DE69"></stop> <stop offset="1" stop-color="#0047B0"></stop> </linearGradient> <linearGradient id="paint45_linear" x1="258.33" y1="265.405" x2="415.651" y2="390.846" gradientUnits="userSpaceOnUse"> <stop stop-color="#67DE69"></stop> <stop offset="1" stop-color="#0047B0"></stop> </linearGradient> <linearGradient id="paint46_linear" x1="261.85" y1="272.402" x2="419.171" y2="397.843" gradientUnits="userSpaceOnUse"> <stop stop-color="#67DE69"></stop> <stop offset="1" stop-color="#0047B0"></stop> </linearGradient> <linearGradient id="paint47_linear" x1="265.608" y1="279.325" x2="422.929" y2="404.765" gradientUnits="userSpaceOnUse"> <stop stop-color="#67DE69"></stop> <stop offset="1" stop-color="#0047B0"></stop> </linearGradient> <linearGradient id="paint48_linear" x1="269.604" y1="286.151" x2="426.925" y2="411.592" gradientUnits="userSpaceOnUse"> <stop stop-color="#67DE69"></stop> <stop offset="1" stop-color="#0047B0"></stop> </linearGradient> <linearGradient id="paint49_linear" x1="273.998" y1="293.087" x2="431.318" y2="418.528" gradientUnits="userSpaceOnUse"> <stop stop-color="#67DE69"></stop> <stop offset="1" stop-color="#0047B0"></stop> </linearGradient> <linearGradient id="paint50_linear" x1="278.678" y1="299.856" x2="435.999" y2="425.297" gradientUnits="userSpaceOnUse"> <stop stop-color="#67DE69"></stop> <stop offset="1" stop-color="#0047B0"></stop> </linearGradient> </defs> </svg> 